Coordinates
version=1
nRows=14
nColumns=40
inDegrees=yes

Units are S.I. units (second, meters, Newtons, ...)
Angles are in degrees.

endheader
time	pelvis_tilt	pelvis_list	pelvis_rotation	pelvis_tx	pelvis_ty	pelvis_tz	hip_flexion_r	hip_adduction_r	hip_rotation_r	knee_angle_r	knee_angle_r_beta	ankle_angle_r	subtalar_angle_r	mtp_angle_r	hip_flexion_l	hip_adduction_l	hip_rotation_l	knee_angle_l	knee_angle_l_beta	ankle_angle_l	subtalar_angle_l	mtp_angle_l	lumbar_extension	lumbar_bending	lumbar_rotation	arm_flex_r	arm_add_r	arm_rot_r	elbow_flex_r	pro_sup_r	wrist_flex_r	wrist_dev_r	arm_flex_l	arm_add_l	arm_rot_l	elbow_flex_l	pro_sup_l	wrist_flex_l	wrist_dev_l
      9.86500000	     -3.20396748	     -5.16885486	      3.95836573	      1.09399914	      0.92790264	      0.45365512	      1.17333959	     -0.92750666	    -17.56424226	     23.10080138	     23.10080138	     15.41419807	      0.51745906	     -6.33334620	     24.27206376	     -6.47986825	     -2.21720146	     25.09726451	     25.09726451	      7.35484652	    -15.29671272	      5.93220398	     -9.11256095	      5.86146210	      3.12410209	     30.31419006	    -20.85993849	     -7.70715828	     78.55355042	     44.80443977	      0.00000000	      0.00000000	     -0.40148766	    -10.12007184	      0.99029804	     34.43284203	     45.32949837	      0.00000000	      0.00000000
      9.87857143	     -3.15190156	     -5.10791217	      3.67307647	      1.09466206	      0.92878965	      0.45013045	      2.20460374	     -1.74172820	    -17.00265710	     25.83348982	     25.83348982	     14.62592592	     -0.38977429	     -7.51086330	     23.63547565	     -6.29713288	     -2.54380983	     25.01290792	     25.01290792	      7.82005572	    -15.27818696	      5.97739046	     -9.12527286	      5.82170271	      3.13697418	     28.43620032	    -20.84425273	     -7.74011926	     76.94588801	     44.85678620	      0.00000000	      0.00000000	      0.85749059	    -10.39864254	      0.99336968	     35.16563709	     45.35450359	      0.00000000	      0.00000000
      9.89214286	     -3.04912719	     -5.03169910	      3.38844510	      1.09527971	      0.92965211	      0.44665473	      3.36142513	     -2.59464487	    -16.36614198	     28.83502427	     28.83502427	     13.61375866	     -1.41279683	     -8.77316362	     22.94037902	     -6.09854144	     -2.87598046	     24.92127019	     24.92127019	      8.26049902	    -15.24605503	      5.95678072	     -9.19359201	      5.77389268	      3.10636629	     26.51594690	    -20.71188480	     -7.72546875	     75.31376799	     44.90685657	      0.00000000	      0.00000000	      2.11430859	    -10.72591051	      0.98024251	     36.01433880	     45.38069743	      0.00000000	      0.00000000
      9.90571429	     -3.04160051	     -5.06341500	      3.08660119	      1.09578641	      0.93029605	      0.44343687	      4.61167862	     -3.17834258	    -15.39480611	     31.44144670	     31.44144670	     10.25320665	     -4.17472001	    -15.61947891	     22.36740693	     -6.01269467	     -3.14704523	     24.83342726	     24.83342726	      8.81030363	    -15.19035571	      6.28596642	     -9.11302229	      5.80178621	      2.86864497	     25.21395227	    -19.89430562	     -8.51743089	     71.92118053	     45.07331132	      0.00000000	      0.00000000	      2.73112921	    -11.46857674	      1.96044343	     38.25363773	     45.33201630	      0.00000000	      0.00000000
      9.91928571	     -2.89951257	     -4.95645547	      2.77259623	      1.09620972	      0.93093502	      0.44019004	      6.15361479	     -4.11211401	    -14.64493411	     35.09029514	     35.09029514	      8.97235366	     -5.18856588	    -16.27608524	     21.64012968	     -5.81430692	     -3.57923566	     24.73934849	     24.73934849	      9.18704647	    -15.08885960	      6.10226180	     -9.29252228	      5.72655139	      2.86266530	     23.16475073	    -19.77478249	     -8.21573171	     70.54040436	     45.10289480	      0.00000000	      0.00000000	      4.08686090	    -11.90203895	      1.82085814	     39.11474106	     45.37509100	      0.00000000	      0.00000000
      9.93285714	     -2.93847121	     -4.97201944	      2.41601903	      1.09638900	      0.93125081	      0.43729853	      8.05631341	     -4.76266953	    -13.56291888	     38.79066440	     38.79066440	      7.21871616	     -6.85260477	    -17.05670490	     21.13180962	     -5.75851237	     -3.97830520	     24.62480269	     24.62480269	      9.51806925	    -15.00706406	      5.84886007	     -9.22135948	      5.74458644	      3.13025634	     21.03992583	    -19.79956482	     -8.11522447	     68.40395521	     45.16638793	      0.00000000	      0.00000000	      5.37323583	    -12.26481792	      1.75074060	     40.44630214	     45.41585769	      0.00000000	      0.00000000
      9.94642857	     -2.83511004	     -5.01651644	      2.10081127	      1.09651346	      0.93158122	      0.43460884	      9.86140243	     -5.23710634	    -12.34067731	     42.41660447	     42.41660447	      5.13794740	     -8.81040645	    -17.83238766	     20.55780857	     -5.76710802	     -4.38499982	     24.65453636	     24.65453636	      9.87901617	    -14.82507352	      5.36908224	     -9.35964676	      5.78229140	      3.23154721	     19.22308110	    -19.44855888	     -8.18206498	     65.56942020	     45.26271396	      0.00000000	      0.00000000	      6.56890436	    -12.83507280	      1.86292169	     42.27595108	     45.44785745	      0.00000000	      0.00000000
      9.96000000	     -2.70637896	     -4.86648852	      1.77767720	      1.09650823	      0.93184401	      0.43193331	     11.75250105	     -5.99879888	    -11.32651781	     46.16277343	     46.16277343	      3.33937954	     -9.83899793	    -17.85777845	     19.90800627	     -5.57220511	     -4.91227134	     24.59962243	     24.59962243	     10.24413481	    -14.60651478	      5.07301498	     -9.56362909	      5.63671696	      3.03263612	     17.34917801	    -18.93363587	     -7.96508111	     63.89762321	     45.30434335	      0.00000000	      0.00000000	      7.83386409	    -13.45562490	      1.75288704	     43.30051166	     45.48706289	      0.00000000	      0.00000000
      9.97357143	     -2.59842293	     -4.83504523	      1.47860389	      1.09640766	      0.93199096	      0.42956620	     13.65940367	     -6.45776131	    -10.21125122	     49.66991825	     49.66991825	      1.58477889	    -10.96135912	    -17.41978707	     19.34209733	     -5.51767507	     -5.36433689	     24.62382883	     24.62382883	     10.65263912	    -14.35476985	      4.71313968	     -9.74586514	      5.57684625	      3.00225658	     15.34248888	    -18.49337846	     -7.74811312	     61.88509387	     45.35685809	      0.00000000	      0.00000000	      9.26213952	    -14.04518980	      1.62936182	     44.50789705	     45.52998688	      0.00000000	      0.00000000
      9.98714286	     -2.56506639	     -4.98625895	      1.13109643	      1.09613277	      0.93208171	      0.42763044	     15.74012811	     -6.49448987	     -8.94679811	     53.13321401	     53.13321401	      0.97685490	    -11.47074658	    -13.52592295	     18.89628772	     -5.78062647	     -6.11310013	     24.67673917	     24.67673917	     10.87497738	    -13.67779345	      3.50453630	     -9.76742090	      5.67119882	      2.46378085	     15.26257791	    -17.40068325	     -7.82623576	     55.41221029	     45.58677830	      0.00000000	      0.00000000	      9.47620888	    -15.32295220	      2.53841501	     47.91655466	     45.54161194	      0.00000000	      0.00000000
     10.00071429	     -2.48197334	     -5.05558833	      0.83653004	      1.09581544	      0.93226748	      0.42570454	     17.57888214	     -6.59728926	     -7.90284446	     56.00164737	     56.00164737	     -0.16974266	    -12.11431544	    -12.08164743	     18.39438072	     -5.88648667	     -6.64585803	     24.72400967	     24.72400967	     11.28181146	    -13.22289738	      3.11136635	     -9.94932541	      5.71896872	      2.74607157	     13.15387149	    -17.23036818	     -7.38230989	     53.05069441	     45.64033325	      0.00000000	      0.00000000	     11.03417779	    -15.69823678	      2.25790975	     49.23054580	     45.61774789	      0.00000000	      0.00000000
     10.01428571	     -2.37706380	     -5.00098910	      0.57098939	      1.09542785	      0.93250762	      0.42384214	     19.27800953	     -6.84070729	     -7.05035975	     58.42916421	     58.42916421	     -1.16538787	    -12.47413711	    -11.37482739	     17.82265312	     -5.82320829	     -7.11876704	     24.67480012	     24.67480012	     11.64013506	    -12.91625220	      2.87269416	    -10.16487816	      5.64424369	      2.49497793	     11.20945272	    -16.62253834	     -7.04272455	     51.46681811	     45.67114471	      0.00000000	      0.00000000	     12.46604361	    -16.38375744	      1.98796573	     50.04771166	     45.67097092	      0.00000000	      0.00000000
     10.02785714	     -2.40685030	     -5.05661771	      0.23403770	      1.09490748	      0.93271868	      0.42227265	     21.06670308	     -6.78690056	     -6.13002466	     60.43929944	     60.43929944	     -1.61630986	    -12.72449486	     -9.80665932	     17.37917825	     -5.95253090	     -7.81407852	     24.59735337	     24.59735337	     12.06488997	    -12.22755631	      2.47150118	    -10.23812640	      5.65884978	      2.94338700	      9.30725305	    -16.45334942	     -6.63723754	     48.58445098	     45.74672955	      0.00000000	      0.00000000	     14.00025394	    -16.57365170	      1.85825337	     51.40554273	     45.72355777	      0.00000000	      0.00000000
     10.04142857	     -2.23147038	     -5.35389265	     -0.03048756	      1.09454139	      0.93342633	      0.42092094	     22.40754048	     -6.51125436	     -5.63349557	     61.88713334	     61.88713334	     -0.95279208	    -12.08020771	     -6.20924435	     16.73718627	     -6.40886120	     -8.61133250	     24.57552420	     24.57552420	     12.51530122	    -11.14908643	      1.89087191	    -10.48474172	      5.95780194	      3.01940700	      8.43928903	    -15.95146366	     -5.94839952	     43.47068349	     45.89530282	      0.00000000	      0.00000000	     15.32132012	    -17.13654869	      2.00700138	     52.95670267	     45.77350057	      0.00000000	      0.00000000
